<?xml version="1.0" standalone="no"?>
<!DOCTYPE svg PUBLIC "-//W3C//DTD SVG 20010904//EN"
 "http://www.w3.org/TR/2001/REC-SVG-20010904/DTD/svg10.dtd">
<svg version="1.0" xmlns="http://www.w3.org/2000/svg"
 width="192.000000pt" height="192.000000pt" viewBox="0 0 192.000000 192.000000"
 preserveAspectRatio="xMidYMid meet">

<g transform="translate(0.000000,192.000000) scale(0.100000,-0.100000)"
fill="#000000" stroke="none">
<path d="M816 1910 c-268 -43 -507 -198 -661 -429 -57 -86 -95 -175 -126 -291
-33 -122 -33 -338 0 -460 49 -184 123 -313 255 -446 133 -132 262 -206 446
-255 122 -33 338 -33 460 0 184 49 313 123 446 255 132 133 206 262 255 446
33 122 33 338 0 460 -49 184 -123 313 -255 446 -182 181 -386 270 -641 279
-66 2 -146 0 -179 -5z m359 -88 c326 -87 568 -333 651 -662 26 -103 26 -297 0
-400 -84 -334 -332 -582 -666 -666 -103 -26 -297 -26 -400 0 -334 84 -582 332
-666 666 -26 103 -26 297 0 400 93 367 383 628 761 684 61 9 252 -4 320 -22z"/>
<path d="M815 1756 c-195 -38 -361 -137 -482 -286 -314 -387 -206 -964 228
-1214 l47 -27 6 68 c3 37 8 126 11 198 3 72 8 150 11 175 l5 45 -60 27 c-96
45 -152 137 -170 278 -21 164 52 321 180 385 173 88 379 -87 379 -323 0 -165
-80 -309 -191 -348 l-34 -11 3 -119 c3 -167 18 -423 24 -429 3 -3 47 -11 98
-17 97 -12 231 -2 311 23 l36 11 11 212 c17 292 18 272 -22 286 -49 16 -113
75 -127 117 -14 42 -8 196 16 426 20 192 21 197 51 197 l24 0 0 -270 0 -270
25 0 25 0 0 270 0 270 25 0 25 0 0 -270 0 -270 25 0 25 0 0 270 0 270 30 0 30
0 0 -270 0 -270 25 0 25 0 0 270 c0 259 1 270 19 270 22 0 23 -4 46 -225 9
-82 17 -206 18 -275 2 -123 1 -128 -25 -161 -14 -20 -54 -50 -88 -68 -37 -20
-59 -38 -57 -45 3 -7 8 -95 12 -195 5 -100 12 -184 17 -187 5 -3 28 7 50 23
156 107 275 279 324 468 25 96 25 293 0 390 -41 161 -147 326 -276 433 -76 61
-217 133 -310 156 -91 23 -259 29 -345 12z"/>
<path d="M489 1158 c-61 -119 -20 -285 87 -354 35 -24 40 -11 11 28 -14 18
-38 69 -52 113 -23 68 -26 90 -21 151 3 39 8 78 12 88 13 35 -17 14 -37 -26z"/>
</g>
</svg>
